# generated from PmQm by Jehee Lee
:FULLY-SPECIFIED
:DEGREES
226
root 16.3505 7.23761 3.97465 -177.407 80.4414 -117.052
RightUpLeg -70.0684 -2.52744 -7.73267
RightLeg 144.276 6.80253 4.03455
RightFoot -20.2619 0.339653 5.43776
RightToes 4.07452e-010 -1.59028e-015 9.93923e-017
Spine 63.703 -4.91358 7.92599
Spine1 26.0841 4.93489 -10.9157
HEad -32.059 -5.45601 -1.80069
LeftShoulder1 9.93923e-017 -0 1.22299e-017
LeftArm -24.8028 24.9495 -74.2123
LeftForeArm -2.18258 -5.86227 0.83171
LeftHand -2.74171 0.607085 43.6472
RightShoulder 1.98785e-016 -4.96962e-017 1.55301e-017
RightArm 47.8034 18.2606 59.1954
RightForeArm -25.1983 19.0979 -14.736
RightHand 1.34465 -13.4783 -1.55426
LeftUpLeg -80.4975 15.8229 -18.8262
LeftLeg 121.083 -30.2709 21.6042
LeftFoot -9.16932 -0.651128 17.0345
LeftToes 1.53707e-010 -1.11459e-010 1.58109e-011
227
root 15.8949 6.84253 3.77034 -167.725 80.9361 -105.873
RightUpLeg -72.387 -1.07641 -6.73405
RightLeg 143.545 6.23664 4.50394
RightFoot -18.7129 0.293587 5.98625
RightToes 4.07452e-010 -1.59028e-015 9.93923e-017
Spine 62.8514 -4.42331 8.50188
Spine1 26.1306 5.05777 -8.7982
HEad -32.6506 -4.78302 -3.57506
LeftShoulder1 9.93923e-017 -0 1.22299e-017
LeftArm -25.6835 26.296 -76.8026
LeftForeArm -1.30679 -6.86596 1.04371
LeftHand -2.81936 0.528514 44.0751
RightShoulder 1.98785e-016 -4.96962e-017 1.55301e-017
RightArm 42.5119 20.3202 56.9541
RightForeArm -18.9403 18.3343 -10.6212
RightHand 1.37048 -13.5751 -1.79304
LeftUpLeg -81.2 18.6314 -18.8302
LeftLeg 115.393 -25.1463 19.1955
LeftFoot -5.08408 -0.930517 12.6477
LeftToes 1.53707e-010 -1.11459e-010 1.58109e-011
228
root 15.3926 6.43001 3.69127 -155.669 81.2625 -93.0945
RightUpLeg -75.7358 0.698841 -4.58605
RightLeg 142.419 6.66392 4.32631
RightFoot -16.096 0.162018 6.16144
RightToes 4.07452e-010 -1.59028e-015 9.93923e-017
Spine 61.7323 -3.19422 8.30168
Spine1 25.7773 5.39397 -6.4603
HEad -33.3445 -3.56152 -4.87512
LeftShoulder1 9.93923e-017 -0 1.22299e-017
LeftArm -22.0195 28.788 -78.7496
LeftForeArm -3.86299 -11.2081 1.90934
LeftHand -2.87644 0.485085 44.4869
RightShoulder 1.98785e-016 -4.96962e-017 1.55301e-017
RightArm 34.746 22.8903 55.0811
RightForeArm -12.2438 16.8429 -6.16142
RightHand 1.38005 -13.689 -1.74792
LeftUpLeg -82.0021 22.3255 -18.8978
LeftLeg 105.706 -21.3443 20.6337
LeftFoot -1.81274 -0.862133 8.31492
LeftToes 1.53707e-010 -1.11459e-010 1.58109e-011
229
root 14.847 5.95556 3.67572 -143.143 81.0007 -79.5709
RightUpLeg -78.5875 2.24868 -1.89955
RightLeg 140.752 7.44949 3.91173
RightFoot -11.7999 -0.0767534 6.54246
RightToes 4.07452e-010 -1.59028e-015 9.93923e-017
Spine 60.6774 -2.0344 8.05018
Spine1 25.7242 5.99862 -4.55505
HEad -34.5656 -2.79668 -4.93823
LeftShoulder1 9.93923e-017 -0 1.22299e-017
LeftArm -6.3735 32.1559 -80.5022
LeftForeArm -18.702 -19.6777 8.00893
LeftHand -2.95678 0.414773 44.9911
RightShoulder 1.98785e-016 -4.96962e-017 1.55301e-017
RightArm 27.0131 25.4747 53.0842
RightForeArm -7.74308 15.0752 -3.06737
RightHand 1.36079 -13.6988 -1.43789
LeftUpLeg -81.4893 26.673 -18.3366
LeftLeg 95.1291 -17.6801 23.9344
LeftFoot -1.90924 -0.570154 5.5633
LeftToes 1.53707e-010 -1.11459e-010 1.58109e-011
230
root 14.3003 5.47631 3.63392 -136.561 79.9818 -70.5621
RightUpLeg -78.8742 2.45023 0.290334
RightLeg 138.889 7.33328 4.19225
RightFoot -7.31403 -0.398452 7.82426
RightToes 4.07452e-010 -1.59028e-015 9.93923e-017
Spine 60.1101 -1.73603 8.12049
Spine1 26.8836 6.27612 -3.47648
HEad -36.3449 -2.46904 -3.81891
LeftShoulder1 9.93923e-017 -0 1.22299e-017
LeftArm 9.25629 35.4488 -81.3992
LeftForeArm -35.2365 -27.8014 19.2811
LeftHand -2.96818 0.397934 45.01
RightShoulder 1.98785e-016 -4.96962e-017 1.55301e-017
RightArm 18.8445 28.0054 51.303
RightForeArm -3.53627 13.1539 -0.99681
RightHand 1.41054 -13.9685 -1.73732
LeftUpLeg -78.0641 30.6897 -16.3848
LeftLeg 86.1116 -13.4753 24.428
LeftFoot -2.51785 -0.345907 3.56787
LeftToes 1.53707e-010 -1.11459e-010 1.58109e-011
231
root 13.9001 5.14358 3.57286 -129.775 79.8065 -60.7717
RightUpLeg -77.8097 2.57087 2.1189
RightLeg 137.477 6.29791 5.24203
RightFoot -3.9383 -0.752638 9.41579
RightToes 4.07452e-010 -1.59028e-015 9.93923e-017
Spine 58.8062 -1.31137 7.88707
Spine1 29.2495 6.70812 -3.46034
HEad -36.8326 -1.93724 -2.58664
LeftShoulder1 9.93923e-017 -0 1.22299e-017
LeftArm 4.95488 37.607 -80.4083
LeftForeArm -30.4223 -35.1748 22.063
LeftHand -2.83695 0.510337 44.1625
RightShoulder 1.98785e-016 -4.96962e-017 1.55301e-017
RightArm 10.2107 29.8824 50.8347
RightForeArm 1.80027 10.8512 0.575466
RightHand 1.57717 -14.6237 -3.02292
LeftUpLeg -72.8884 34.9757 -13.3139
LeftLeg 78.8313 -10.1191 21.5082
LeftFoot -0.898466 -0.100368 0.940929
LeftToes 1.53707e-010 -1.11459e-010 1.58109e-011
232
root 13.654 4.954 3.5068 -126.656 80.0655 -55.1708
RightUpLeg -76.2528 1.69071 2.99722
RightLeg 136.72 4.86908 6.62697
RightFoot -1.85973 -0.965398 9.81992
RightToes 4.07452e-010 -1.59028e-015 9.93923e-017
Spine 56.5992 -0.994882 7.43743
Spine1 30.7614 6.68669 -3.73049
HEad -34.0961 -1.4478 -1.86129
LeftShoulder1 9.93923e-017 -0 1.22299e-017
LeftArm 4.85597 38.7839 -79.6528
LeftForeArm -29.4997 -38.9845 24.067
LeftHand -2.61263 0.705898 42.6633
RightShoulder 1.98785e-016 -4.96962e-017 1.55301e-017
RightArm 3.98905 30.0721 52.0291
RightForeArm 5.64732 9.02474 1.31576
RightHand 1.71195 -14.9932 -4.19623
LeftUpLeg -66.788 37.2429 -10.1294
LeftLeg 72.052 -7.90002 17.958
LeftFoot 1.93544 0.184055 -1.3484
LeftToes 1.53707e-010 -1.11459e-010 1.58109e-011
233
root 13.4691 4.83259 3.48183 -128.65 80.4384 -55.2475
RightUpLeg -74.1887 -0.0409821 3.00204
RightLeg 135.941 4.12485 7.46067
RightFoot 0.433594 -1.07944 9.09844
RightToes 4.07452e-010 -1.59028e-015 9.93923e-017
Spine 54.4771 -0.756217 6.88079
Spine1 30.2878 6.27262 -3.73278
HEad -29.0684 -1.91059 -1.44101
LeftShoulder1 9.93923e-017 -0 1.22299e-017
LeftArm 6.20148 39.3788 -79.1606
LeftForeArm -29.0082 -39.5513 24.3974
LeftHand -2.36495 0.927424 40.9158
RightShoulder 1.98785e-016 -4.96962e-017 1.55301e-017
RightArm 1.92139 28.5616 53.7358
RightForeArm 6.1377 8.7467 1.25241
RightHand 1.60791 -14.4671 -3.69468
LeftUpLeg -60.2602 36.699 -6.9492
LeftLeg 65.5945 -6.67925 14.3676
LeftFoot 3.65572 0.309662 -2.00447
LeftToes 1.53707e-010 -1.11459e-010 1.58109e-011
234
root 13.3051 4.72106 3.51022 -132.969 80.621 -57.73
RightUpLeg -71.4293 -1.78703 2.68024
RightLeg 134.466 4.70279 7.22672
RightFoot 4.03278 -1.29916 8.60432
RightToes 4.07452e-010 -1.59028e-015 9.93923e-017
Spine 52.7755 -0.544687 6.37047
Spine1 29.1689 5.77382 -3.47115
HEad -24.9583 -3.2106 -1.30369
LeftShoulder1 9.93923e-017 -0 1.22299e-017
LeftArm 7.49884 39.7812 -78.8795
LeftForeArm -28.846 -39.3039 24.2722
LeftHand -2.11749 1.1801 39.255
RightShoulder 1.98785e-016 -4.96962e-017 1.55301e-017
RightArm 3.67379 26.7277 54.8254
RightForeArm 4.1591 9.92917 0.631128
RightHand 1.3379 -13.4429 -1.50361
LeftUpLeg -53.7762 34.0354 -3.42838
LeftLeg 59.7392 -6.63853 10.3718
LeftFoot 4.19464 0.31271 -1.94111
LeftToes 1.53707e-010 -1.11459e-010 1.58109e-011
235
root 13.18 4.6066 3.5751 -136.72 80.6807 -59.6292
RightUpLeg -68.5237 -2.95541 2.41348
RightLeg 132.472 6.43793 5.85509
RightFoot 8.34228 -1.56743 8.28742
RightToes 4.07452e-010 -1.59028e-015 9.93923e-017
Spine 50.9108 -0.34942 5.84345
Spine1 29.0489 5.24646 -3.14454
HEad -23.7449 -4.08528 -1.52989
LeftShoulder1 9.93923e-017 -0 1.22299e-017
LeftArm 8.04134 40.3192 -78.4767
LeftForeArm -29.0083 -40.1643 24.7368
LeftHand -1.88627 1.449 37.8092
RightShoulder 1.98785e-016 -4.96962e-017 1.55301e-017
RightArm 7.85357 25.7703 55.4397
RightForeArm 1.59456 11.6027 -0.403553
RightHand 1.15162 -12.7506 0.456306
LeftUpLeg -47.9337 30.3811 0.003598130001
LeftLeg 54.3882 -7.09244 7.1772
LeftFoot 4.73198 0.417642 -2.52547
LeftToes 1.53707e-010 -1.11459e-010 1.58109e-011
236
root 13.0582 4.4909 3.65737 -138.4 80.8245 -59.4114
RightUpLeg -65.979 -3.3424 2.54765
RightLeg 130.605 8.64236 3.71627
RightFoot 12.0099 -1.53918 6.92881
RightToes 4.07452e-010 -1.59028e-015 9.93923e-017
Spine 49.0721 -0.160276 5.30674
Spine1 29.6034 4.80033 -2.95775
HEad -24.6136 -3.76303 -1.73077
LeftShoulder1 9.93923e-017 -0 1.22299e-017
LeftArm 8.92275 41.1054 -77.4967
LeftForeArm -29.6778 -42.1507 25.8493
LeftHand -1.68322 1.68837 36.4297
RightShoulder 1.98785e-016 -4.96962e-017 1.55301e-017
RightArm 11.7826 25.5065 56.1079
RightForeArm -0.0560908 12.851 -1.41803
RightHand 1.15019 -12.7239 0.454221
LeftUpLeg -42.7866 26.7543 2.98412
LeftLeg 49.3315 -6.68199 6.13146
LeftFoot 5.361 0.578546 -3.40787
LeftToes 1.53707e-010 -1.11459e-010 1.58109e-011
237
root 12.9205 4.37264 3.76628 -138.577 81.3041 -57.6533
RightUpLeg -64.0175 -2.95768 2.96031
RightLeg 129.107 10.4763 1.70112
RightFoot 14.6855 -1.27932 5.17122
RightToes 4.07452e-010 -1.59028e-015 9.93923e-017
Spine 47.7217 0.190402 4.55607
Spine1 29.803 4.63473 -3.03704
HEad -25.8254 -2.73884 -1.57864
LeftShoulder1 9.93923e-017 -0 1.22299e-017
LeftArm 11.1271 41.88 -75.8645
LeftForeArm -31.2299 -44.3636 27.1311
LeftHand -1.47529 1.94235 34.9438
RightShoulder 1.98785e-016 -4.96962e-017 1.55301e-017
RightArm 13.4471 25.2859 56.822
RightForeArm -0.807923 13.4224 -2.00374
RightHand 1.27287 -13.0979 -1.03805
LeftUpLeg -38.2166 23.5806 5.33833
LeftLeg 44.9509 -5.30998 6.50558
LeftFoot 5.18585 0.6158 -3.66671
LeftToes 1.53707e-010 -1.11459e-010 1.58109e-011
238
root 12.7742 4.27301 3.90205 -140.863 81.859 -58.1792
RightUpLeg -62.2561 -2.59049 3.00774
RightLeg 127.674 11.0925 0.9687
RightFoot 16.1563 -1.32029 5.059
RightToes 4.07452e-010 -1.59028e-015 9.93923e-017
Spine 46.1799 0.639984 3.56657
Spine1 30.0427 4.34614 -2.87871
HEad -26.6216 -1.89106 -1.29221
LeftShoulder1 9.93923e-017 -0 1.22299e-017
LeftArm 13.9469 42.321 -74.002
LeftForeArm -33.5931 -46.3698 28.3193
LeftHand -1.2135 2.32982 33.4308
RightShoulder 1.98785e-016 -4.96962e-017 1.55301e-017
RightArm 12.5698 25.0131 57.3718
RightForeArm -1.02802 13.4324 -2.10776
RightHand 1.38751 -13.4812 -2.22606
LeftUpLeg -34.3142 20.2306 6.80398
LeftLeg 41.4482 -4.10598 6.71195
LeftFoot 4.31968 0.567927 -3.56134
LeftToes 1.53707e-010 -1.11459e-010 1.58109e-011
239
root 12.6245 4.17513 4.0171 -142.402 82.6256 -57.5087
RightUpLeg -59.9347 -1.92148 2.7623
RightLeg 125.619 10.6908 1.48044
RightFoot 17.3232 -1.88922 6.94522
RightToes 4.07452e-010 -1.59028e-015 9.93923e-017
Spine 44.9547 1.11566 2.70701
Spine1 30.5422 4.17964 -2.80304
HEad -26.9118 -1.5177 -1.07201
LeftShoulder1 9.93923e-017 -0 1.22299e-017
LeftArm 16.2241 42.4163 -72.3202
LeftForeArm -35.9054 -48.1197 29.4237
LeftHand -0.873009 2.91716 31.8358
RightShoulder 1.98785e-016 -4.96962e-017 1.55301e-017
RightArm 10.0226 24.822 57.8139
RightForeArm -0.77187 12.9787 -1.7384
RightHand 1.41862 -13.7595 -2.2192
LeftUpLeg -30.2734 17.1107 8.06414
LeftLeg 38.7347 -3.49694 6.45919
LeftFoot 3.67293 0.598984 -3.916
LeftToes 1.53707e-010 -1.11459e-010 1.58109e-011
240
root 12.4763 4.07707 4.08871 -143.793 83.5642 -56.2939
RightUpLeg -57.1144 -1.14969 2.30822
RightLeg 122.591 10.2956 2.08271
RightFoot 18.6266 -2.48099 8.73219
RightToes 4.07452e-010 -1.59028e-015 9.93923e-017
Spine 44.0939 1.55059 2.00341
Spine1 30.9907 4.13229 -2.92331
HEad -26.5283 -1.48007 -0.67121
LeftShoulder1 9.93923e-017 -0 1.22299e-017
LeftArm 17.7951 42.3129 -70.947
LeftForeArm -37.1892 -49.3186 30.2584
LeftHand -0.461797 3.68573 29.8594
RightShoulder 1.98785e-016 -4.96962e-017 1.55301e-017
RightArm 6.87447 24.5906 58.2295
RightForeArm -0.0480902 12.0845 -0.850541
RightHand 1.37557 -13.8039 -1.48687
LeftUpLeg -26.0777 14.2664 8.94217
LeftLeg 36.5887 -2.85238 6.36637
LeftFoot 3.53377 0.699104 -4.62193
LeftToes 1.53707e-010 -1.11459e-010 1.58109e-011
